<?xml version="1.0" standalone="no"?>
<!DOCTYPE svg PUBLIC "-//W3C//DTD SVG 20010904//EN"
 "http://www.w3.org/TR/2001/REC-SVG-20010904/DTD/svg10.dtd">
<svg version="1.0" xmlns="http://www.w3.org/2000/svg"
 width="500.000000pt" height="500.000000pt" viewBox="0 0 500.000000 500.000000"
 preserveAspectRatio="xMidYMid meet">

<g transform="translate(0.000000,500.000000) scale(0.100000,-0.100000)"
fill="#000000" stroke="none">
<path d="M2805 4878 c38 -11 81 -29 95 -39 45 -34 80 -63 122 -101 23 -21 47
-38 53 -38 5 0 2 -7 -7 -14 -16 -12 -16 -14 7 -24 14 -6 33 -9 42 -6 11 4 14
2 8 -3 -13 -10 -13 -38 0 -37 6 1 21 -12 34 -28 l24 -30 -45 33 c-27 21 -40
37 -34 41 17 12 -7 9 -24 -2 -9 -6 -10 -10 -3 -10 7 0 33 -21 58 -47 32 -34
48 -44 53 -35 6 9 16 3 38 -20 28 -32 28 -32 2 -9 -16 14 -30 22 -33 19 -10
-9 66 -69 78 -62 7 4 9 4 5 -1 -4 -4 -2 -15 5 -24 6 -9 -4 -4 -23 12 -59 46
-74 55 -115 71 -23 9 -32 11 -21 3 33 -22 79 -68 73 -73 -3 -3 -22 -2 -43 2
-22 4 -33 9 -26 12 10 3 10 7 2 17 -6 8 -18 11 -26 8 -12 -4 -12 -8 -2 -21 11
-13 10 -14 -9 -4 -38 21 -37 13 1 -13 20 -14 41 -25 46 -25 6 0 10 -9 10 -21
0 -14 -4 -18 -12 -12 -7 4 -24 9 -38 10 -23 2 -24 2 -5 -8 11 -6 31 -24 44
-41 l24 -30 -30 5 c-17 3 -40 10 -51 16 -42 22 -36 10 8 -16 25 -14 47 -28 49
-29 2 -2 -6 -12 -19 -22 l-22 -18 46 -29 c25 -16 44 -31 42 -33 -3 -2 -25 10
-51 28 -29 20 -44 37 -41 46 3 8 0 14 -7 14 -7 0 -24 8 -37 18 -14 9 -34 18
-45 19 -11 0 -38 8 -60 16 -22 8 -65 17 -95 21 -51 5 -52 5 -15 -5 22 -5 54
-16 72 -24 17 -8 39 -15 50 -15 10 0 29 -7 41 -16 12 -8 27 -12 34 -8 6 4 8 3
5 -3 -4 -6 4 -15 18 -21 33 -15 99 -76 136 -126 22 -29 24 -33 6 -14 -15 16
-32 25 -40 22 -8 -3 -18 0 -23 7 -5 9 -2 10 10 6 12 -5 16 -3 13 5 -2 7 -15
13 -28 13 -15 0 -23 5 -21 13 1 8 -3 12 -10 9 -7 -2 -24 3 -38 13 -34 23 -89
44 -96 37 -4 -3 11 -13 32 -22 44 -18 114 -72 167 -129 37 -40 49 -58 24 -37
-10 8 -17 7 -26 -2 -10 -9 -12 -9 -9 3 2 8 -3 14 -10 15 -8 0 -19 10 -25 22
-16 29 -77 69 -153 99 -35 14 -68 32 -75 40 -16 19 -62 18 -147 -5 -55 -14
-72 -16 -72 -6 0 7 16 16 35 19 19 4 35 12 35 17 0 6 9 7 22 3 21 -6 22 -5 8
11 -14 17 -13 18 8 13 12 -4 20 -2 17 2 -3 5 21 6 52 3 l58 -5 -35 22 c-26 17
-55 24 -119 28 -94 6 -86 16 21 28 l63 8 -40 8 c-24 5 -50 5 -69 -2 -39 -14
-53 -13 -38 3 7 6 32 17 55 24 l42 12 -45 -6 c-25 -3 -57 -5 -71 -5 -15 0 -36
-8 -48 -19 -11 -11 -21 -16 -21 -12 0 4 -4 2 -9 -6 -5 -8 -16 -16 -24 -17 -10
-1 -6 11 14 41 16 24 29 50 29 59 0 9 4 16 9 16 5 0 5 16 0 38 -5 20 -9 45 -9
56 0 15 3 16 15 6 13 -11 14 -10 9 4 -5 14 -3 15 20 6 18 -6 26 -6 26 1 0 10
48 7 105 -7 17 -4 17 -3 5 6 -11 8 10 10 82 8 53 -2 94 0 91 5 -2 4 -50 7
-106 7 -124 0 -171 12 -214 55 -40 40 -43 65 -7 65 14 0 23 4 19 10 -3 6 -1
10 6 10 7 0 0 10 -14 23 -15 12 -27 29 -27 36 0 8 -6 11 -15 7 -8 -3 -15 -2
-15 2 0 4 -13 13 -30 19 -35 13 -36 11 -13 -24 10 -16 18 -50 19 -86 2 -40 0
-56 -6 -47 -8 12 -10 10 -10 -8 0 -12 -15 -50 -32 -84 -18 -33 -37 -69 -43
-79 -5 -11 -13 -19 -17 -19 -11 0 -38 -56 -38 -77 1 -13 5 -11 16 10 16 30 30
37 19 10 -4 -10 -8 -27 -10 -38 -1 -11 -5 -33 -9 -50 -5 -23 -4 -25 3 -10 8
17 10 14 10 -18 1 -25 5 -36 12 -31 8 4 9 -1 5 -17 -3 -13 -3 -18 0 -11 5 10
20 0 54 -33 34 -33 50 -43 55 -34 6 8 4 10 -6 4 -11 -6 -12 -5 -2 5 11 12 16
10 33 -7 10 -12 28 -24 40 -28 11 -3 20 -11 20 -16 0 -5 7 -9 15 -9 8 0 15 -4
15 -10 0 -5 7 -10 15 -10 8 0 15 -5 15 -10 0 -6 19 -29 43 -51 l42 -41 -47 31
c-26 17 -51 31 -56 31 -6 0 -13 6 -15 13 -4 7 -6 8 -6 1 -1 -7 11 -20 27 -29
36 -23 82 -66 82 -77 0 -5 -15 2 -32 15 -66 50 -100 61 -178 61 -73 0 -74 0
-35 11 l40 12 -45 13 c-79 21 -124 43 -152 71 -30 29 -39 50 -13 29 8 -7 15
-9 15 -4 0 4 10 -2 23 -14 12 -12 31 -21 42 -21 11 1 34 -3 51 -9 27 -8 21 1
-47 67 -82 81 -85 87 -79 174 1 15 -1 27 -3 27 -13 0 -71 -106 -87 -158 -19
-62 -14 -129 9 -124 7 1 10 -2 7 -7 -4 -5 0 -13 7 -18 7 -4 16 -16 20 -25 4
-11 22 -20 48 -24 31 -5 37 -9 25 -16 -9 -5 -32 -5 -56 2 -22 6 -45 8 -50 5
-17 -10 -63 75 -76 138 -8 44 -13 53 -14 32 l-2 -30 -8 35 c-9 38 3 115 23
139 8 10 4 9 -15 -3 -26 -17 -42 -50 -51 -106 -4 -23 -4 -22 -6 5 -2 60 27
109 105 174 41 35 74 66 74 71 0 4 8 11 17 14 16 6 16 6 0 -12 -9 -10 -14 -22
-10 -25 3 -4 -6 -20 -21 -36 -16 -17 -23 -31 -17 -35 5 -4 15 4 22 16 7 13 27
40 45 61 30 33 40 51 32 60 -2 1 7 16 19 33 34 47 41 75 34 119 l-7 40 -13
-58 c-11 -50 -21 -67 -76 -124 -42 -44 -68 -64 -79 -60 -10 4 -13 1 -9 -9 6
-17 -13 -19 -20 -1 -4 8 -8 8 -14 2 -4 -5 -15 -11 -23 -13 -21 -5 -41 -23 -35
-32 3 -4 -2 -7 -9 -6 -19 1 -139 -116 -160 -156 l-17 -33 5 40 5 40 -19 -40
c-25 -52 -25 -133 0 -252 17 -81 68 -210 70 -175 0 7 5 10 11 7 6 -4 8 -14 4
-23 -3 -9 -3 -14 0 -11 3 3 31 -20 62 -52 32 -31 62 -55 68 -52 5 4 7 3 3 -2
-4 -4 3 -16 15 -26 12 -10 17 -18 11 -19 -5 0 -38 22 -72 50 -61 49 -79 56
-44 17 17 -20 17 -20 -10 -2 -30 19 -98 105 -98 124 0 6 -4 11 -10 11 -5 0
-10 8 -10 18 0 10 -4 22 -8 27 -20 23 -34 127 -30 224 2 56 0 94 -4 84 -4 -10
-5 -3 -1 17 3 19 7 47 8 62 1 17 23 51 61 93 32 37 66 78 75 91 9 14 26 32 37
40 24 17 52 94 51 143 0 36 0 36 -13 -11 -7 -25 -21 -59 -31 -75 -26 -40 -77
-93 -90 -93 -14 0 -67 -54 -60 -61 2 -3 -16 -27 -41 -55 -25 -27 -41 -40 -35
-29 5 12 22 33 37 48 14 15 21 27 15 27 -13 0 -67 -52 -93 -90 l-17 -25 10 31
c5 17 19 41 30 52 10 12 19 24 19 28 0 4 8 16 18 27 9 11 11 17 5 13 -20 -11
-98 -117 -118 -158 -18 -39 -35 -42 -35 -7 0 27 19 61 30 54 5 -3 12 0 16 6 5
8 3 9 -6 4 -10 -6 -12 -4 -7 8 4 12 2 14 -10 10 -8 -3 -31 -38 -49 -77 -22
-45 -34 -61 -32 -44 2 17 -6 36 -22 54 l-25 27 25 -16 c30 -20 40 -21 40 -4 0
16 -58 77 -73 77 -6 0 -7 3 -3 8 4 4 -9 12 -31 19 l-38 11 36 1 c25 1 49 -8
76 -28 40 -29 79 -35 77 -13 -2 28 -5 32 -16 32 -7 0 -26 10 -43 21 l-30 21
42 -6 c28 -4 43 -2 47 7 3 6 4 3 1 -8 -4 -16 1 -20 20 -21 26 -2 34 11 13 19
-7 2 -5 3 4 2 20 -3 51 28 41 40 -5 4 -3 5 4 1 6 -3 18 1 25 9 7 9 22 25 33
36 19 19 19 19 -28 5 -27 -8 -54 -20 -62 -26 -8 -7 -15 -9 -14 -4 1 19 62 56
100 61 29 4 37 9 27 15 -9 7 -6 8 10 5 14 -3 22 0 22 8 0 20 -28 26 -90 21
-39 -4 -47 -3 -25 3 17 5 23 9 15 10 -13 1 -13 3 0 11 20 11 81 3 108 -13 24
-16 18 48 -9 86 -11 15 -18 31 -15 36 3 4 -7 6 -22 4 -22 -4 -24 -2 -12 7 12
9 7 11 -24 6 -46 -6 -126 -38 -126 -49 0 -5 -4 -6 -8 -3 -5 3 -21 -6 -36 -19
-16 -14 -33 -22 -37 -19 -5 3 -9 0 -9 -6 0 -13 -66 -78 -189 -187 -114 -100
-151 -154 -158 -230 -4 -47 -1 -70 18 -113 12 -30 31 -66 41 -79 18 -24 18
-24 -14 -51 -28 -24 -32 -35 -39 -96 -14 -130 0 -269 71 -693 27 -165 29 -153
-28 -145 -43 5 -51 3 -79 -23 -17 -16 -36 -47 -42 -69 -26 -92 -1 -428 40
-552 37 -110 102 -160 190 -146 l36 6 12 -117 c13 -129 34 -202 80 -274 28
-43 32 -59 45 -196 7 -82 12 -154 9 -160 -7 -19 -104 -78 -213 -130 -302 -143
-779 -416 -802 -458 -23 -43 37 -184 124 -289 28 -34 55 -65 58 -68 4 -3 12
-15 19 -28 7 -12 17 -20 23 -16 6 4 8 3 5 -3 -9 -15 87 -101 186 -167 261
-172 639 -297 1037 -342 149 -16 537 -18 700 -3 523 48 1050 249 1269 484 189
203 288 401 226 450 -73 57 -457 275 -645 367 -307 149 -321 156 -359 187 -32
27 -34 31 -32 87 4 149 21 269 41 296 32 43 41 73 64 213 l22 130 59 -3 c84
-5 119 20 167 118 43 88 53 129 74 310 23 197 7 353 -40 386 -11 8 -35 14 -53
14 -21 0 -33 5 -33 13 0 16 42 83 98 157 23 30 49 78 58 105 9 28 34 76 56
108 119 173 120 317 3 454 -40 47 -44 63 -14 63 12 0 36 9 54 20 47 29 62 75
17 51 -29 -16 -115 -14 -110 1 3 7 23 16 46 20 23 4 50 12 62 18 27 15 88 137
94 191 l5 44 -21 -40 c-27 -52 -62 -81 -112 -94 -38 -9 -61 -8 -123 5 -27 5
-30 26 -7 44 19 16 38 62 48 113 8 42 4 45 -25 18 -29 -27 -78 -33 -130 -18
-66 20 -177 88 -252 154 -36 32 -78 69 -93 83 l-29 25 26 3 c29 3 59 54 59
101 0 39 -9 43 -38 21 -13 -11 -39 -20 -57 -20 -52 0 -165 39 -204 71 -43 34
-167 79 -213 78 -26 0 -19 -5 37 -21z m-834 -161 c12 -21 11 -21 -8 -4 -11 9
-26 17 -34 17 -12 0 -12 2 1 9 17 12 26 7 41 -22z m577 -263 c-17 -52 -27 -69
-40 -68 -10 1 -18 -4 -18 -12 0 -8 -5 -14 -11 -14 -7 0 -9 -10 -5 -25 4 -14 2
-25 -3 -25 -16 0 -19 53 -5 93 16 47 49 102 78 135 20 23 21 23 24 4 2 -10 -7
-50 -20 -88z m102 -64 c-12 -8 -12 -12 -2 -18 8 -6 3 -9 -17 -9 l-29 0 21 18
c12 10 27 18 32 19 6 0 3 -5 -5 -10z m77 -56 c-3 -3 -12 -4 -19 -1 -8 3 -5 6
6 6 11 1 17 -2 13 -5z m-181 -30 c-4 -9 -9 -15 -11 -12 -3 3 -3 13 1 22 4 9 9
15 11 12 3 -3 3 -13 -1 -22z m-777 -27 c1 -5 -4 -5 -10 -1 -8 5 -10 0 -6 -17
4 -16 -1 -35 -14 -54 l-21 -30 6 30 c16 79 31 116 38 98 3 -10 7 -22 7 -26z
m408 -39 c-3 -8 -6 -5 -6 6 -1 11 2 17 5 13 3 -3 4 -12 1 -19z m700 6 c-3 -3
-12 -4 -19 -1 -8 3 -5 6 6 6 11 1 17 -2 13 -5z m-1170 -26 c-3 -8 -6 -5 -6 6
-1 11 2 17 5 13 3 -3 4 -12 1 -19z m293 -36 c0 -26 9 -76 20 -111 11 -36 16
-76 13 -92 -3 -16 -1 -35 4 -41 15 -19 27 -55 14 -43 -23 23 -40 69 -31 85 6
11 4 24 -7 40 -9 12 -16 36 -15 51 0 16 -4 29 -9 29 -5 0 -9 32 -9 71 0 44 4
68 10 64 6 -3 10 -27 10 -53z m1276 43 c9 -8 12 -15 9 -15 -4 0 7 -14 25 -30
40 -37 33 -52 -9 -19 -25 20 -51 58 -51 74 0 9 12 5 26 -10z m-1355 -95 c-6
-58 -9 -65 -10 -30 -1 48 10 131 16 115 1 -6 -1 -44 -6 -85z m145 -83 c15 -20
16 -20 10 -2 -4 11 -10 34 -12 50 -4 26 -3 24 12 -10 9 -22 16 -48 17 -57 1
-9 5 -14 9 -12 4 3 8 0 8 -7 0 -7 2 -10 5 -7 3 3 -2 21 -10 41 -8 20 -15 49
-14 64 0 21 3 17 13 -20 7 -26 16 -51 21 -55 4 -4 4 3 0 16 -3 12 -3 37 1 55
l7 32 9 -34 c13 -47 59 -113 74 -107 7 3 16 0 20 -6 5 -7 2 -8 -7 -4 -8 4 -3
-1 11 -12 27 -23 79 -36 123 -33 15 1 27 0 27 -3 0 -15 -109 -66 -140 -66 -45
0 -113 31 -134 61 -9 13 -16 19 -16 14 0 -6 -9 4 -20 20 -11 17 -20 39 -20 50
0 11 -6 30 -14 41 -8 11 -17 42 -20 69 l-6 50 15 -53 c8 -30 22 -63 31 -75z
m841 97 c-3 -3 -12 -4 -19 -1 -8 3 -5 6 6 6 11 1 17 -2 13 -5z m-450 -100 c-3
-3 -12 -4 -19 -1 -8 3 -5 6 6 6 11 1 17 -2 13 -5z m-519 -64 c0 -9 -3 -7 -8 5
-5 11 -8 29 -8 40 0 16 2 15 8 -5 4 -14 8 -32 8 -40z m278 33 c-7 -7 -26 7
-26 19 0 6 6 6 15 -2 9 -7 13 -15 11 -17z m174 7 l25 -8 -25 -1 c-14 0 -32 4
-40 9 -13 9 -13 10 0 9 8 -1 26 -5 40 -9z m-562 -98 c8 -18 42 -60 74 -93 33
-34 58 -63 55 -65 -9 -9 -74 26 -113 60 -40 35 -102 136 -84 136 6 0 10 -5 10
-12 0 -6 3 -8 7 -4 4 4 6 23 5 44 l-1 37 16 -35 c9 -19 23 -50 31 -68z m632
63 c103 0 152 -4 169 -14 17 -10 20 -15 11 -21 -9 -6 -5 -12 16 -23 16 -8 40
-28 54 -43 l25 -27 -59 31 c-38 20 -74 32 -98 32 -50 0 -41 -16 13 -23 59 -8
69 -24 11 -17 -26 3 -71 3 -99 0 -29 -4 -53 -5 -53 -3 0 1 12 10 28 18 15 9
18 13 7 10 -45 -16 -55 -17 -55 -6 0 6 11 16 25 21 14 5 25 12 25 15 0 2 -12
0 -26 -6 -15 -5 -29 -8 -31 -5 -9 9 64 26 115 26 31 0 52 3 48 7 -3 4 -70 7
-149 7 -117 1 -146 4 -166 18 l-25 18 35 -7 c19 -4 99 -8 179 -8z m-406 -21
c3 -8 2 -12 -4 -9 -6 3 -10 10 -10 16 0 14 7 11 14 -7z m966 -20 c0 -4 -7 -3
-16 0 -9 3 -12 2 -9 -5 4 -6 12 -8 19 -6 7 3 23 -3 36 -13 13 -10 29 -16 35
-14 6 3 20 -6 30 -18 11 -13 13 -17 5 -10 -17 14 -34 16 -25 2 3 -5 1 -10 -5
-10 -7 0 -10 6 -7 13 3 7 -3 13 -12 14 -44 4 -117 43 -93 51 7 2 9 8 6 14 -4
6 2 5 15 -1 11 -7 21 -14 21 -17z m30 4 c0 -5 4 -7 9 -4 5 3 12 -1 15 -9 4
-12 2 -13 -13 -6 -10 6 -24 17 -31 26 -11 13 -10 15 4 9 9 -3 16 -10 16 -16z
m-970 -19 c0 -5 3 -8 8 -6 4 3 21 -6 37 -19 l30 -25 -29 5 c-16 3 -29 6 -30 8
-1 2 -10 13 -20 26 -11 12 -14 22 -8 22 7 0 12 -5 12 -11z m860 -14 c-1 -4 9
-13 22 -19 13 -6 27 -21 33 -34 5 -12 15 -22 22 -22 7 0 13 -4 13 -10 0 -36
-87 37 -95 80 -2 12 -2 20 1 17 3 -3 5 -9 4 -12z m238 -60 c-3 -3 -9 2 -12 12
-6 14 -5 15 5 6 7 -7 10 -15 7 -18z m-552 1 c17 -13 18 -15 2 -21 -13 -5 -3
-14 43 -37 33 -17 59 -32 57 -34 -2 -2 -27 8 -55 22 -29 13 -78 31 -110 39
-57 15 -57 15 -13 11 69 -5 97 10 35 19 -71 9 -77 13 -24 14 25 1 54 -5 65
-13z m428 -22 c3 -8 2 -12 -4 -9 -6 3 -10 10 -10 16 0 14 7 11 14 -7z m-399
-90 c32 -16 52 -31 49 -39 -3 -7 2 -15 10 -18 9 -4 16 -11 16 -16 0 -5 -39 11
-87 35 -49 24 -95 44 -103 44 -8 0 -22 5 -30 10 -11 7 0 10 38 10 37 0 69 -8
107 -26z m-563 -83 c40 -22 99 -49 131 -61 33 -12 86 -37 118 -56 33 -18 65
-31 72 -29 65 24 250 -7 230 -38 -4 -6 0 -8 10 -4 12 5 17 1 17 -13 0 -11 6
-20 13 -20 8 0 7 -4 -3 -10 -10 -6 -11 -10 -2 -10 6 0 12 -5 12 -11 0 -5 -5
-7 -12 -3 -8 5 -9 2 -5 -9 4 -11 1 -17 -8 -17 -8 0 -15 -7 -15 -15 0 -12 -13
-14 -62 -12 -46 1 -62 -1 -60 -10 1 -7 -5 -13 -14 -13 -8 0 -12 -4 -9 -10 9
-14 -8 -12 -24 3 -11 10 -12 8 -3 -9 10 -19 9 -21 -13 -16 -22 4 -54 30 -47
39 7 9 1 53 -8 53 -5 0 -10 -7 -10 -15 0 -28 -51 -16 -63 15 -4 12 -6 11 -6
-3 -1 -16 -8 -17 -53 -12 -29 3 -57 9 -63 13 -6 4 -2 -2 10 -12 l20 -19 -25 7
c-14 5 -41 10 -60 12 -26 3 -30 2 -15 -5 11 -5 23 -7 28 -4 4 2 13 1 19 -4 26
-15 -53 -21 -89 -6 -19 8 -38 12 -41 9 -3 -3 -1 -6 4 -6 6 0 19 -7 30 -16 10
-8 12 -12 4 -8 -8 5 -33 10 -55 11 -22 2 -45 4 -52 5 -7 1 -10 5 -7 10 6 10
-41 30 -81 34 -25 3 -27 2 -12 -7 9 -5 22 -7 29 -3 7 5 8 3 3 -6 -6 -10 -4
-12 8 -7 9 3 16 2 14 -3 -1 -5 7 -16 18 -24 l20 -16 -20 7 c-11 3 -26 11 -33
17 -8 5 -26 10 -40 11 -17 0 -26 6 -24 14 2 8 -3 11 -12 8 -8 -3 -20 0 -26 8
-8 10 -7 14 7 18 12 4 10 5 -7 5 -14 -1 -36 0 -50 1 -21 1 -22 3 -10 12 11 8
7 9 -18 5 -20 -4 -31 -2 -27 4 12 19 -25 10 -45 -12 -11 -12 -20 -19 -20 -15
0 9 24 61 30 67 3 3 14 22 23 43 10 20 23 37 29 37 18 0 79 72 74 87 -3 7 1
13 9 13 8 0 15 5 15 10 0 6 12 10 28 10 15 0 34 5 42 10 35 23 107 11 182 -29z
m899 -59 c2 -29 -2 -57 -7 -62 -5 -6 -8 16 -6 56 4 77 10 80 13 6z m-961 -272
c8 -5 11 -10 5 -10 -5 0 -17 5 -25 10 -8 5 -10 10 -5 10 6 0 17 -5 25 -10z
m170 -5 c7 -9 8 -15 2 -15 -5 0 -12 7 -16 15 -3 8 -4 15 -2 15 2 0 9 -7 16
-15z m319 -242 c7 -16 19 -41 27 -58 10 -21 13 -55 10 -115 -3 -73 -1 -93 20
-142 33 -80 32 -119 -7 -157 -28 -28 -47 -34 -104 -33 -5 0 -45 6 -89 13 -61
9 -80 16 -83 30 -4 16 -9 13 -27 -14 -25 -36 -41 -42 -80 -27 l-27 10 18 31
c18 30 68 79 81 79 4 0 12 -10 17 -21 15 -32 27 -25 42 21 11 32 12 49 3 76
-14 42 -26 43 -35 4 -6 -26 -11 -30 -40 -30 -55 0 -138 -89 -138 -146 0 -8 -4
-14 -9 -14 -4 0 -8 -7 -8 -15 0 -8 -9 -23 -20 -32 -11 -10 -20 -22 -20 -29 0
-16 -35 -45 -45 -37 -4 5 -6 1 -3 -8 8 -20 -30 -45 -45 -30 -6 6 -7 11 -2 11
5 0 1 6 -10 14 -10 7 -19 22 -20 33 0 11 -9 29 -19 39 -18 17 -18 18 0 31 16
12 15 13 -12 14 -22 1 -24 3 -7 6 12 2 27 12 35 21 8 10 9 13 1 9 -15 -9 -65
2 -58 13 3 5 15 6 28 4 12 -2 15 -1 7 2 -8 4 -17 10 -20 13 -3 4 -18 12 -33
19 -15 7 -25 17 -22 22 3 6 -2 10 -12 11 -13 0 -10 4 10 13 15 7 24 16 20 21
-5 4 -1 6 9 2 9 -3 29 -2 45 3 l28 8 -35 2 c-19 1 -67 2 -107 2 -52 0 -73 4
-77 14 -3 8 -16 14 -30 14 -43 0 -38 19 6 23 l43 3 -33 8 c-41 11 -46 20 -30
48 7 13 11 26 10 31 -1 4 5 7 14 7 11 0 14 6 9 20 -5 14 -2 20 10 20 9 0 13
-4 10 -10 -3 -5 6 -12 20 -16 14 -3 25 -10 25 -15 0 -5 36 -9 79 -9 59 0 84 4
95 16 9 8 20 13 25 10 5 -3 31 1 57 9 59 18 57 18 48 3 -4 -6 -3 -9 2 -7 67
34 64 33 79 18 13 -13 11 -19 -15 -49 -16 -19 -29 -39 -30 -43 0 -9 83 35 110
58 8 7 29 15 45 16 17 2 43 12 58 22 28 19 28 19 34 -3 5 -19 9 -15 28 29 11
28 27 57 33 63 7 7 12 15 12 19 0 4 4 19 10 33 8 21 16 26 43 26 27 0 36 -5
46 -27z m411 -219 c0 -8 -4 -12 -10 -9 -5 3 -10 10 -10 16 0 5 5 9 10 9 6 0
10 -7 10 -16z m7 -30 c-3 -3 -12 -4 -19 -1 -8 3 -5 6 6 6 11 1 17 -2 13 -5z
m43 -28 c0 -2 -7 -7 -16 -10 -8 -3 -12 -2 -9 4 6 10 25 14 25 6z m-142 -28 c7
-7 12 -9 12 -5 0 4 6 2 13 -5 8 -7 12 -21 9 -31 -4 -16 -1 -18 17 -12 19 6 21
3 19 -25 -2 -24 -6 -30 -20 -27 -10 3 -16 1 -12 -4 3 -5 -4 -9 -14 -9 -21 0
-32 18 -32 51 0 10 -4 19 -9 19 -5 0 -9 14 -9 30 1 32 7 37 26 18z m82 -135
c0 -9 7 -25 17 -35 9 -11 11 -18 5 -18 -7 0 -12 5 -12 11 0 8 -12 10 -35 6
-19 -3 -35 -2 -35 4 0 5 7 9 15 9 8 0 15 5 15 11 0 5 -4 8 -9 5 -5 -4 -17 -3
-28 1 -16 6 -15 8 7 14 43 12 60 10 60 -8z m-7 -64 c4 -16 3 -18 -9 -8 -16 13
-19 29 -5 29 5 0 11 -9 14 -21z m-786 -121 c-3 -8 -6 -5 -6 6 -1 11 2 17 5 13
3 -3 4 -12 1 -19z m-8 -50 c16 -35 17 -44 5 -55 -12 -12 -12 -20 1 -51 11 -28
12 -33 1 -19 -7 9 -18 17 -25 17 -15 0 -14 -20 2 -21 9 0 9 -2 -1 -6 -6 -2 -9
-10 -5 -16 3 -7 2 -8 -3 -4 -5 5 -9 12 -9 16 0 4 -13 19 -30 33 l-30 26 25 22
c17 15 20 20 8 16 -24 -7 -23 10 2 27 11 8 17 17 13 20 -3 4 -1 7 5 7 7 0 12
7 12 15 0 25 8 17 29 -27z m31 -78 c0 -5 -4 -10 -9 -10 -6 0 -13 5 -16 10 -3
6 1 10 9 10 9 0 16 -4 16 -10z m14 -70 c-6 -6 -10 -3 -10 10 0 13 4 16 10 10
7 -7 7 -13 0 -20z m241 -24 c22 -33 70 -50 89 -30 8 8 22 14 31 14 11 0 15 5
11 15 -8 22 15 18 49 -10 l30 -25 -35 0 c-19 -1 -46 -7 -60 -15 -32 -18 -64
-19 -98 -1 -33 16 -114 28 -106 15 3 -5 -2 -9 -12 -9 -13 0 -14 3 -4 15 7 8
18 15 25 15 6 0 20 9 30 20 23 26 31 25 50 -4z m-404 -29 c-10 -9 -11 -8 -5 6
3 10 9 15 12 12 3 -3 0 -11 -7 -18z m417 -192 c2 -17 -4 -39 -13 -50 -14 -17
-16 -17 -11 -2 6 20 -19 24 -27 5 -4 -8 -8 -4 -12 10 -7 20 -16 26 -37 24 -13
-2 -31 29 -22 38 13 12 53 16 89 10 24 -5 31 -11 33 -35z m-141 3 c-3 -8 -6
-5 -6 6 -1 11 2 17 5 13 3 -3 4 -12 1 -19z m182 -26 c-1 -23 -3 -29 -7 -17
l-5 20 -8 -20 c-6 -16 -8 -12 -8 16 -1 20 2 39 5 42 14 13 24 -6 23 -41z m131
36 c0 -28 -14 -36 -78 -44 -34 -4 -50 12 -38 41 7 19 116 22 116 3z m17 -20
c-3 -7 -5 -2 -5 12 0 14 2 19 5 13 2 -7 2 -19 0 -25z m-112 -260 c34 2 45 -4
63 -35 15 -27 15 -53 1 -73 -8 -12 -9 -11 -4 6 3 12 2 29 -2 39 -6 18 -7 18
-14 -1 -7 -17 -8 -17 -8 -1 -1 9 -5 17 -10 17 -5 0 -7 -10 -4 -22 4 -22 4 -22
-9 -3 -7 11 -22 21 -33 23 -12 2 -16 0 -9 -5 7 -6 6 -16 -3 -33 -11 -22 -13
-23 -14 -5 -1 11 -1 27 0 35 1 11 -1 11 -9 -2 -10 -16 -13 -16 -34 -3 -25 16
-38 11 -29 -11 3 -8 1 -14 -4 -14 -16 0 -33 68 -19 79 14 12 65 19 91 13 11
-3 34 -5 50 -4z m-208 -50 c-3 -8 -6 -5 -6 6 -1 11 2 17 5 13 3 -3 4 -12 1
-19z m43 12 c-11 -7 -11 -10 -2 -10 7 0 10 -5 6 -11 -4 -8 -9 -7 -15 2 -13 21
-11 29 9 29 14 0 15 -2 2 -10z m4 -49 c3 -5 -1 -11 -9 -14 -9 -4 -12 -1 -8 9
6 16 10 17 17 5z m103 -23 c-3 -8 -6 -5 -6 6 -1 11 2 17 5 13 3 -3 4 -12 1
-19z m44 -9 c-9 -22 -10 -22 -10 -3 -1 11 2 24 6 27 12 12 14 0 4 -24z m-200
-16 c-12 -20 -14 -14 -5 12 4 9 9 14 11 11 3 -2 0 -13 -6 -23z m256 5 c-3 -8
-6 -5 -6 6 -1 11 2 17 5 13 3 -3 4 -12 1 -19z m-180 -30 c-3 -8 -6 -5 -6 6 -1
11 2 17 5 13 3 -3 4 -12 1 -19z m-1399 -1053 c-3 -3 -9 2 -12 12 -6 14 -5 15
5 6 7 -7 10 -15 7 -18z m82 -45 c8 -5 11 -10 5 -10 -5 0 -17 5 -25 10 -8 5
-10 10 -5 10 6 0 17 -5 25 -10z m90 -56 c0 -7 -58 25 -65 36 -3 5 10 1 29 -11
20 -12 36 -23 36 -25z m40 -14 c8 -5 11 -10 5 -10 -5 0 -17 5 -25 10 -8 5 -10
10 -5 10 6 0 17 -5 25 -10z m105 -51 c6 -6 -8 -3 -30 6 -22 9 -44 21 -50 26
-5 6 8 3 30 -6 22 -9 45 -21 50 -26z m73 -21 c7 -1 9 -5 4 -10 -5 -5 -21 -1
-38 8 -26 14 -26 15 -4 9 14 -3 31 -7 38 -7z m72 -7 c-26 -15 -66 -24 -55 -13
6 5 19 12 30 15 32 8 41 7 25 -2z m47 3 c-3 -3 -12 -4 -19 -1 -8 3 -5 6 6 6
11 1 17 -2 13 -5z m-14 -21 c-7 -2 -19 -2 -25 0 -7 3 -2 5 12 5 14 0 19 -2 13
-5z m16 -29 c18 -8 38 -11 44 -7 6 4 7 1 2 -7 -6 -10 -3 -12 13 -8 13 4 20 2
16 -4 -4 -6 9 -7 33 -4 29 4 32 4 13 -3 -21 -8 -17 -9 25 -10 36 -1 46 -4 35
-11 -8 -5 -12 -10 -8 -10 3 0 13 -3 22 -6 11 -4 14 0 11 15 -2 12 1 21 7 21 5
0 7 -7 4 -16 -5 -12 -1 -14 17 -10 12 3 16 3 10 0 -7 -3 -13 -9 -13 -14 0 -9
28 -16 192 -53 53 -12 100 -26 105 -30 9 -9 7 -9 -152 29 -122 29 -346 101
-415 133 -47 22 -19 18 39 -5z m171 -19 c14 -8 21 -14 15 -14 -5 0 -21 6 -35
14 -14 8 -20 14 -15 14 6 0 21 -6 35 -14z m197 -31 c-3 -3 -12 -4 -19 -1 -8 3
-5 6 6 6 11 1 17 -2 13 -5z m3 -38 c0 -2 -7 -7 -16 -10 -8 -3 -12 -2 -9 4 6
10 25 14 25 6z m167 -42 c-3 -3 -12 -4 -19 -1 -8 3 -5 6 6 6 11 1 17 -2 13 -5z
m1050 -10 c-3 -3 -12 -4 -19 -1 -8 3 -5 6 6 6 11 1 17 -2 13 -5z m-40 -10 c-3
-3 -12 -4 -19 -1 -8 3 -5 6 6 6 11 1 17 -2 13 -5z m-922 -24 c39 -9 39 -9 -10
-4 -27 3 -57 10 -65 15 -16 10 -2 8 75 -11z m758 -7 c-7 -2 -19 -2 -25 0 -7 3
-2 5 12 5 14 0 19 -2 13 -5z m-660 -10 c-7 -2 -21 -2 -30 0 -10 3 -4 5 12 5
17 0 24 -2 18 -5z m590 0 c-7 -2 -19 -2 -25 0 -7 3 -2 5 12 5 14 0 19 -2 13
-5z m-490 -10 c-13 -2 -35 -2 -50 0 -16 2 -5 4 22 4 28 0 40 -2 28 -4z m357
-3 c-30 -5 -116 -8 -190 -7 l-135 1 145 6 c80 3 165 6 190 7 43 0 43 0 -10 -7z"/>
<path d="M2490 4430 c-6 -11 -8 -20 -6 -20 3 0 10 9 16 20 6 11 8 20 6 20 -3
0 -10 -9 -16 -20z"/>
<path d="M2511 4404 c0 -11 3 -14 6 -6 3 7 2 16 -1 19 -3 4 -6 -2 -5 -13z"/>
<path d="M2182 3975 c44 -43 43 -59 -4 -34 -11 6 -18 7 -15 2 12 -20 86 -45
112 -39 31 8 25 22 -14 31 -16 3 -48 24 -72 46 -23 21 -45 39 -48 39 -3 0 15
-21 41 -45z m83 -55 c18 -8 17 -9 -7 -9 -16 -1 -28 4 -28 9 0 12 8 12 35 0z"/>
<path d="M2135 3971 c-3 -5 -2 -12 3 -15 5 -3 9 1 9 9 0 17 -3 19 -12 6z"/>
<path d="M2172 3904 c9 -9 21 -15 27 -13 6 2 -2 10 -17 17 -25 11 -25 11 -10
-4z"/>
<path d="M1794 3930 c0 -13 4 -16 10 -10 7 7 7 13 0 20 -6 6 -10 3 -10 -10z"/>
<path d="M2090 3916 c0 -2 8 -10 18 -17 15 -13 16 -12 3 4 -13 16 -21 21 -21
13z"/>
<path d="M1888 3413 c7 -3 16 -2 19 1 4 3 -2 6 -13 5 -11 0 -14 -3 -6 -6z"/>
<path d="M2010 3371 c0 -10 30 -24 37 -17 3 2 -5 9 -16 16 -12 6 -21 7 -21 1z"/>
<path d="M2548 3373 c7 -3 16 -2 19 1 4 3 -2 6 -13 5 -11 0 -14 -3 -6 -6z"/>
<path d="M2618 3363 c7 -3 16 -2 19 1 4 3 -2 6 -13 5 -11 0 -14 -3 -6 -6z"/>
<path d="M2120 2936 c0 -2 7 -7 16 -10 8 -3 12 -2 9 4 -6 10 -25 14 -25 6z"/>
<path d="M2360 2856 c0 -27 16 -44 23 -24 5 18 -3 48 -14 48 -5 0 -9 -11 -9
-24z"/>
<path d="M2070 2830 c-9 -6 -10 -10 -3 -10 6 0 15 5 18 10 8 12 4 12 -15 0z"/>
<path d="M1908 2773 c7 -3 16 -2 19 1 4 3 -2 6 -13 5 -11 0 -14 -3 -6 -6z"/>
<path d="M1983 2773 c9 -2 23 -2 30 0 6 3 -1 5 -18 5 -16 0 -22 -2 -12 -5z"/>
<path d="M1938 2753 c7 -3 16 -2 19 1 4 3 -2 6 -13 5 -11 0 -14 -3 -6 -6z"/>
<path d="M1868 2673 c7 -3 16 -2 19 1 4 3 -2 6 -13 5 -11 0 -14 -3 -6 -6z"/>
<path d="M2150 4875 c0 -8 -5 -15 -11 -15 -5 0 -8 4 -4 9 3 5 -9 2 -27 -6 -18
-9 -28 -18 -22 -20 19 -6 89 14 87 24 -1 6 6 9 16 6 10 -3 22 0 25 6 5 7 -5
11 -28 11 -25 0 -36 -4 -36 -15z"/>
<path d="M2582 4881 c-10 -6 -8 -10 9 -14 13 -4 25 -4 28 -2 2 3 -1 5 -8 5 -7
0 -9 5 -6 10 8 12 -5 13 -23 1z"/>
<path d="M2691 4866 c2 -2 29 -6 59 -9 34 -3 47 -2 35 3 -19 8 -103 14 -94 6z"/>
<path d="M2250 4855 c0 -2 10 -10 23 -16 20 -11 21 -11 8 4 -13 16 -31 23 -31
12z"/>
<path d="M2100 4822 c0 -5 18 -14 39 -21 22 -6 63 -29 90 -51 54 -43 62 -40
35 12 -27 51 -53 67 -111 68 -29 0 -53 -4 -53 -8z"/>
<path d="M2492 4805 c0 -11 4 -33 8 -50 l8 -30 0 30 c0 17 -3 39 -8 50 l-9 20
1 -20z"/>
<path d="M2894 4806 c11 -9 24 -16 30 -16 12 0 7 5 -24 19 -24 11 -24 11 -6
-3z"/>
<path d="M2171 4755 c1 -19 18 -51 18 -35 0 8 -4 22 -9 30 -5 8 -9 11 -9 5z"/>
<path d="M2750 4696 c0 -2 7 -7 16 -10 8 -3 12 -2 9 4 -6 10 -25 14 -25 6z"/>
<path d="M3038 4693 c7 -3 16 -2 19 1 4 3 -2 6 -13 5 -11 0 -14 -3 -6 -6z"/>
<path d="M2818 4653 c7 -3 16 -2 19 1 4 3 -2 6 -13 5 -11 0 -14 -3 -6 -6z"/>
<path d="M2486 4585 c-9 -26 -7 -32 5 -12 6 10 9 21 6 23 -2 3 -7 -2 -11 -11z"/>
<path d="M2043 4545 c-15 -16 -16 -25 -5 -25 4 0 13 9 20 20 14 23 3 26 -15 5z"/>
<path d="M2880 4529 c0 -5 9 -9 20 -9 11 0 20 2 20 4 0 2 -9 6 -20 9 -11 3
-20 1 -20 -4z"/>
<path d="M2410 4460 c-6 -11 -8 -20 -6 -20 3 0 10 9 16 20 6 11 8 20 6 20 -3
0 -10 -9 -16 -20z"/>
<path d="M2284 4448 l-19 -23 23 19 c21 18 27 26 19 26 -2 0 -12 -10 -23 -22z"/>
<path d="M2723 4451 c-16 -12 -12 -12 27 -6 25 4 65 11 90 15 39 7 35 8 -27 6
-44 0 -80 -6 -90 -15z"/>
<path d="M2980 4450 c8 -5 22 -9 30 -9 10 0 8 3 -5 9 -27 12 -43 12 -25 0z"/>
<path d="M1850 4435 c-7 -9 -11 -17 -9 -20 3 -2 10 5 17 15 14 24 10 26 -8 5z"/>
<path d="M1746 4373 c-6 -14 -5 -15 5 -6 7 7 10 15 7 18 -3 3 -9 -2 -12 -12z"/>
<path d="M1956 4305 c-3 -9 -6 -22 -5 -28 0 -7 5 -1 10 12 5 13 8 26 5 28 -2
2 -6 -3 -10 -12z"/>
<path d="M2918 4303 c6 -2 18 -2 25 0 6 3 1 5 -13 5 -14 0 -19 -2 -12 -5z"/>
<path d="M2486 4226 c3 -8 13 -17 22 -21 13 -5 13 -2 -3 15 -21 24 -26 25 -19
6z"/>
<path d="M3115 4200 c-3 -5 -1 -10 4 -10 6 0 11 5 11 10 0 6 -2 10 -4 10 -3 0
-8 -4 -11 -10z"/>
<path d="M2240 4165 c0 -5 5 -17 10 -25 5 -8 10 -10 10 -5 0 6 -5 17 -10 25
-5 8 -10 11 -10 5z"/>
<path d="M3120 4125 c0 -5 5 -17 10 -25 5 -8 10 -10 10 -5 0 6 -5 17 -10 25
-5 8 -10 11 -10 5z"/>
</g>
</svg>
